# xmcd
#
# Track frame offsets: 
#        150
#        10092
#        18878
#        28392
#        37502
#        47530
#        58533
#        68296
#        80247
#        89614
#
# Disc length: 1335 seconds
#
# Revision: 1
# Processed by: cddbd v1.5.2PL0 Copyright (c) Steve Scherf et al.
# Submitted via: ExactAudioCopy v1.3
#
DISCID=6d05350a
DTITLE=Roy Orbison - Roy Orbison
DYEAR=2007
DGENRE=Rock
TTITLE0=Ooby dooby
TTITLE1=Claudette
TTITLE2=Go, go, go (move on down the line)
TTITLE3=Rockhouse
TTITLE4=Domino
TTITLE5=Fool’s hall of fame
TTITLE6=Sweet and easy to love
TTITLE7=Tryin’ to get to you
TTITLE8=You’re my baby
TTITLE9=A true love goodbye
EXTD=
EXTT0=
EXTT1=
EXTT2=
EXTT3=
EXTT4=
EXTT5=
EXTT6=
EXTT7=
EXTT8=
EXTT9=
PLAYORDER=
